# xmcd CD database file
#
# Track frame offsets:
#	150
#	16483
#	40171
#	55708
#	70026
#	88428
#	104516
#	121192
#	141155
#	153895
#
# Disc length: 2167 seconds
#
# Revision: 2
# Processed by: cddbd v1.5.2PL0 Copyright (c) Steve Scherf et al.
# Submitted via: CDex 1.51
#
DISCID=8108750a
DTITLE=Lee Kernaghan - Electric Rodeo - Disk 2
DYEAR=2003
DGENRE=Country
TTITLE0=I'm From The Country
TTITLE1=Spirit Of The High Country
TTITLE2=Love Hurts
TTITLE3=Conargo Chicago
TTITLE4=In My Next Life
TTITLE5=This Is The Outback
TTITLE6=Mate
TTITLE7=Diamantina Drover
TTITLE8=Boys From Bathurst
TTITLE9=Great Balls Of Fire
EXTD=YEAR: 2003
EXTT0=
EXTT1=
EXTT2=
EXTT3=
EXTT4=
EXTT5=
EXTT6=
EXTT7=
EXTT8=
EXTT9=
PLAYORDER=
